HIERARCHY
ROOT hip
{
  OFFSET 0 0 0
  CHANNELS 6 Xposition Yposition Zposition Zrotation Yrotation Xrotation
  JOINT abdomen
  {
    OFFSET 0 20.6881 -0.73152
    CHANNELS 3 Zrotation Xrotation Yrotation
    JOINT chest
    {
      OFFSET 0 11.7043 -0.48768
      CHANNELS 3 Zrotation Xrotation Yrotation
      JOINT neck
      {
        OFFSET 0 22.1894 -2.19456
        CHANNELS 3 Zrotation Xrotation Yrotation
        JOINT head
        {
          OFFSET -0.24384 7.07133 1.2192
          CHANNELS 3 Zrotation Xrotation Yrotation
          JOINT leftEye
          {
            OFFSET 4.14528 8.04674 8.04672
            CHANNELS 3 Zrotation Xrotation Yrotation
            End Site
            {
              OFFSET 1 0 0
            }
          }
          JOINT rightEye
          {
            OFFSET -3.6576 8.04674 8.04672
            CHANNELS 3 Zrotation Xrotation Yrotation
            End Site
            {
              OFFSET 1 0 0
            }
          }
        }
      }
      JOINT rCollar
      {
        OFFSET -2.68224 19.2634 -4.8768
        CHANNELS 3 Zrotation Xrotation Yrotation
        JOINT rShldr
        {
          OFFSET -8.77824 -1.95073 1.46304
          CHANNELS 3 Zrotation Xrotation Yrotation
          JOINT rForeArm
          {
            OFFSET -28.1742 -1.7115 0.48768
            CHANNELS 3 Zrotation Xrotation Yrotation
            JOINT rHand
            {
              OFFSET -22.5879 0.773209 7.07136
              CHANNELS 3 Zrotation Xrotation Yrotation
              JOINT rThumb1
              {
                OFFSET -1.2192 -0.487915 3.41376
                CHANNELS 3 Zrotation Xrotation Yrotation
                JOINT rThumb2
                {
                  OFFSET -3.37035 -0.52449 3.41376
                  CHANNELS 3 Zrotation Xrotation Yrotation
                  End Site
                  {
                    OFFSET -1.78271 -1.18214 1.43049
                  }
                }
              }
              JOINT rIndex1
              {
                OFFSET -7.75947 0.938293 5.60832
                CHANNELS 3 Zrotation Xrotation Yrotation
                JOINT rIndex2
                {
                  OFFSET -2.54057 -0.884171 1.56538
                  CHANNELS 3 Zrotation Xrotation Yrotation
                  End Site
                  {
                    OFFSET -1.62519 -0.234802 1.16502
                  }
                }
              }
              JOINT rMid1
              {
                OFFSET -8.24714 1.18213 3.41376
                CHANNELS 3 Zrotation Xrotation Yrotation
                JOINT rMid2
                {
                  OFFSET -3.10165 -0.590103 1.0647
                  CHANNELS 3 Zrotation Xrotation Yrotation
                  End Site
                  {
                    OFFSET -2.48547 -0.328903 0.83742
                  }
                }
              }
              JOINT rRing1
              {
                OFFSET -8.82822 0.546677 1.51678
                CHANNELS 3 Zrotation Xrotation Yrotation
                JOINT rRing2
                {
                  OFFSET -2.60934 -0.819778 -0.0198488
                  CHANNELS 3 Zrotation Xrotation Yrotation
                  End Site
                  {
                    OFFSET -2.33842 -0.294052 0.168128
                  }
                }
              }
              JOINT rPinky1
              {
                OFFSET -8.27202 -0.0477905 -0.4584
                CHANNELS 3 Zrotation Xrotation Yrotation
                JOINT rPinky2
                {
                  OFFSET -1.82734 -0.647385 -0.700984
                  CHANNELS 3 Zrotation Xrotation Yrotation
                  End Site
                  {
                    OFFSET -1.69225 -0.51767 -0.607171
                  }
                }
              }
            }
          }
        }
      }
      JOINT lCollar
      {
        OFFSET 2.68224 19.2634 -4.8768
        CHANNELS 3 Zrotation Xrotation Yrotation
        JOINT lShldr
        {
          OFFSET 8.77824 -1.95073 1.46304
          CHANNELS 3 Zrotation Xrotation Yrotation
          JOINT lForeArm
          {
            OFFSET 28.1742 -1.7115 0.48768
            CHANNELS 3 Zrotation Xrotation Yrotation
            JOINT lHand
            {
              OFFSET 22.5879 0.773209 7.07136
              CHANNELS 3 Zrotation Xrotation Yrotation
              JOINT lThumb1
              {
                OFFSET 1.2192 -0.487915 3.41376
                CHANNELS 3 Zrotation Xrotation Yrotation
                JOINT lThumb2
                {
                  OFFSET 3.37035 -0.52449 3.41376
                  CHANNELS 3 Zrotation Xrotation Yrotation
                  End Site
                  {
                    OFFSET 1.78271 -1.18214 1.43049
                  }
                }
              }
              JOINT lIndex1
              {
                OFFSET 7.75947 0.938293 5.60832
                CHANNELS 3 Zrotation Xrotation Yrotation
                JOINT lIndex2
                {
                  OFFSET 2.54057 -0.884171 1.56538
                  CHANNELS 3 Zrotation Xrotation Yrotation
                  End Site
                  {
                    OFFSET 1.62519 -0.234802 1.16502
                  }
                }
              }
              JOINT lMid1
              {
                OFFSET 8.24714 1.18213 3.41376
                CHANNELS 3 Zrotation Xrotation Yrotation
                JOINT lMid2
                {
                  OFFSET 3.10165 -0.590103 1.0647
                  CHANNELS 3 Zrotation Xrotation Yrotation
                  End Site
                  {
                    OFFSET 2.48547 -0.328903 0.83742
                  }
                }
              }
              JOINT lRing1
              {
                OFFSET 8.82822 0.546677 1.51678
                CHANNELS 3 Zrotation Xrotation Yrotation
                JOINT lRing2
                {
                  OFFSET 2.60934 -0.819778 -0.0198488
                  CHANNELS 3 Zrotation Xrotation Yrotation
                  End Site
                  {
                    OFFSET 2.33842 -0.294052 0.168128
                  }
                }
              }
              JOINT lPinky1
              {
                OFFSET 8.27202 -0.0477905 -0.4584
                CHANNELS 3 Zrotation Xrotation Yrotation
                JOINT lPinky2
                {
                  OFFSET 1.82734 -0.647385 -0.700984
                  CHANNELS 3 Zrotation Xrotation Yrotation
                  End Site
                  {
                    OFFSET 1.69225 -0.51767 -0.607171
                  }
                }
              }
            }
          }
        }
      }
    }
  }
  JOINT rButtock
  {
    OFFSET -8.77824 4.35084 1.2192
    CHANNELS 3 Zrotation Xrotation Yrotation
    JOINT rThigh
    {
      OFFSET 0 -1.70687 -2.19456
      CHANNELS 3 Zrotation Xrotation Yrotation
      JOINT rShin
      {
        OFFSET 0 -36.8199 0.73152
        CHANNELS 3 Zrotation Xrotation Yrotation
        JOINT rFoot
        {
          OFFSET 0.73152 -45.1104 -5.12064
          CHANNELS 3 Zrotation Xrotation Yrotation
          End Site
          {
            OFFSET -1.1221 -3.69964 12.103
          }
        }
      }
    }
  }
  JOINT lButtock
  {
    OFFSET 8.77824 4.35084 1.2192
    CHANNELS 3 Zrotation Xrotation Yrotation
    JOINT lThigh
    {
      OFFSET 0 -1.70687 -2.19456
      CHANNELS 3 Zrotation Xrotation Yrotation
      JOINT lShin
      {
        OFFSET 0 -36.8199 0.73152
        CHANNELS 3 Zrotation Xrotation Yrotation
        JOINT lFoot
        {
          OFFSET -0.73152 -45.1104 -5.12064
          CHANNELS 3 Zrotation Xrotation Yrotation
          End Site
          {
            OFFSET 1.1221 -3.69964 12.103
          }
        }
      }
    }
  }
}
MOTION
Frames:	4
Frame Time:	0.03333
0.22997800260782242 61.405932903289795 0.12251054868102074 -6.656266940534839 6.195324367320535 2.474147234377909 -2.438268677554655 15.081761196872666 3.988214477601676 2.7030409607301995 -9.97343966473168 1.2046212540081083 -4.834903510136674 15.238435491149003 -3.1148953912664443 8.607241321283635 -25.28114949576389 -4.622102990129403 -0.016188722271693816 -0.006262749860372786 -0.04314777241042504 -0.009024494162585129 -0.07420872467171916 0.016647759008686275 0.025038779806179166 0.04334064521319857 -0.008233342812254105 47.17880769181106 29.46565464548845 15.886343820721828 -24.16973428383025 -30.414945072188086 67.09611742481015 -4.875073133305989 -11.394843012146353 -5.3981819539116325 0.006552926178392546 -0.01150251880997749 0.008912169567250154 0.05644036107190122 -0.047076118358960854 0.029712069941495937 -0.0911405501807692 -0.03549649311655627 0.07556382353087912 7.678844443255066 5.489913528899019 0.43407122163729833 -0.00682720096225087 0.009330625375619217 0.0025114819021548446 2.8928867090409383 0.9977369584825376 0.09628158821231285 0.009557569082963468 -0.05183318503331606 0.0034307826757562485 10.135094020686603 0.7150458341020236 -0.006086232159010268 -0.04037154063665287 0.013167644224432552 0.11008377301889545 2.316908595721399 -0.6983336952243246 -0.22096713173793198 -0.02760175493137356 0.05333385229916191 -0.05910883060326058 -56.04864502724594 31.77479133970802 -24.632971373718853 23.221437649654845 -28.34141233829352 -63.21151563625709 5.702641478146359 -14.93298772391874 4.727866761879758 -0.058446942584004034 -0.01008130585408593 -0.03438978902760264 -0.02538365099841192 -0.09052175105022192 -0.01838622891543964 0.02404845573738021 0.017094522749513865 0.006472458012233333 -7.773469030242777 5.510408365277289 -0.41662379688719164 -0.006169368367814018 -0.04178538979484551 0.02033312631358417 -2.8766071665976245 0.926878334877004 -0.08056929831565386 0.043599658793130144 0.01649074469905532 0.0107735561986373 -10.270604973819657 0.726969796928132 0.03193625701168712 -0.09186568415091449 -0.01405652931188624 -0.07026439714774257 -2.247418037662278 -0.7692034178872595 0.2472815027324639 -0.07410531133881694 -0.017700488594940934 -0.025357050613245894 -31.66289918072487 -36.094257612337444 -29.037849161919283 -6.120528673267018 62.332265384401346 7.034271380431324 -4.779391147657395 -10.17735069353418 -10.33630883231424 -0.0003998862315630903 -0.0689262803800151 -0.018031059078598973 37.230609844930804 -34.653483848436615 32.079185550258806 6.374021752801933 63.804041376944866 -7.456595210304729 5.131639797967408 -10.373090254768405 13.50931760747327
0.3277731128036976 63.369011878967285 0.17956774681806564 -5.7857183496816935 5.617180443703867 2.945413211635864 -2.7380145174884265 14.325486793475712 3.446653687509831 2.874878274963965 -9.486874063732897 1.110358026716174 -4.957242443455358 15.25369925639669 -4.076741840094681 8.58393244696732 -25.259455107412638 -5.869321572669942 -0.10643355717583933 -0.014571514903134625 -0.06623530590894908 0.1133999232424292 0.009540493610038435 0.056258373883117406 -0.036491886466379846 -0.009628752460719694 0.02906941517465319 51.62138129404079 30.7205174903707 16.194381937194816 -24.078351475377353 -28.573483383270336 65.81071680414875 -3.9362486908489265 -9.462197444035287 -4.076598406122111 -0.09667855293718017 -0.0026191641032883273 -0.11087520784875746 0.08008423482266395 0.014830688565624875 0.14088924685676202 -0.1010994995991767 -0.047249968017678834 0.0604048589982705 7.9359660607865505 5.552878908423251 0.44734665478457014 -0.05678459193389929 -0.004098540388830776 -0.022525483635026038 2.9693101225510343 0.9244102887091021 0.02116299429774072 0.022364760746119174 -0.10915239935232753 -0.06408403644423308 10.415050668160733 0.7715731200032838 -0.04759740053085034 -0.0060289759638585206 -0.05672749582130621 -0.026532683583921114 2.3267679737883125 -0.8071815108283519 -0.2969623244035797 -0.0419775955869579 -0.020946002389460587 -0.01423987720241877 -60.88451799735793 32.45063172789161 -26.832843824238434 22.998141690214204 -26.732226600027687 -62.02067898465453 5.074227362238397 -12.588233300724845 3.7063714172561544 0.032397668306633216 -0.17042762722209864 -0.00202952667884582 0.10281152920332272 -0.046919797740417477 -0.08722204930959174 -0.007906157407701323 -0.009372033397462419 0.0049740852630617855 -7.849862988562077 5.589897253064251 -0.5419278593988803 0.11518158875959761 -0.002695790288039408 0.023443957315407635 -3.0559606771261665 0.986323392214329 -0.18336369868519867 -0.07358797787004136 -0.03479863988245137 0.0602164685071398 -10.533961700289716 0.7660461095825684 -0.07828143840775083 0.05720791692009463 -0.02658853905668448 -0.025982146324434286 -2.2639349291792494 -0.732048256019448 0.1629460621208488 0.061351640611110626 -0.028206760281448594 -0.006370672185344276 -32.90318298682373 -35.411416280254585 -27.31766431190428 -4.343196484240163 62.57139030724349 6.007390858533988 -4.59053470955925 -9.602054105027761 -10.805752856611093 0.08949276704350363 -0.04305624520750423 0.11299651519457532 38.25169580509103 -33.47026285775863 30.51652023042993 4.678315446998608 63.36882172303165 -6.005178304129727 5.241816725695238 -10.157409102478681 15.09769261311172
0.6600786000490189 58.90381336212158 -0.09355675429105759 -12.659191282238462 47.58276556989312 -9.313141372004452 -6.219902803048826 14.182912570967218 -3.2873365369115217 6.375703686885048 -11.331066120771359 -0.3934161481088106 -10.285885814540267 20.692350081140646 -16.353663656186807 16.53103171610099 -29.05940182384526 -29.03904786011862 0.1464722061317334 0.048959916548562105 0.007333728858316074 0.24636246876312695 -0.0018389750731730426 -0.584477856854797 0.5115365591609384 0.1692035826176383 0.22945302813186458 52.01109822770338 -2.2312119197525417 23.45264296815436 -26.93998387910655 -31.08204964842323 67.94772590109484 0.5269808441739537 22.509129173945265 5.106728817403903 -0.1749105258343013 0.019767474592516043 -0.1429033522491224 0.012867489426922224 0.010528629883868875 0.03076829466361494 0.2418214601821263 -0.08845062958654779 0.47089629326912785 8.248808361566999 5.742332134300127 0.2924621902358933 -0.06719806909722999 0.15099355123844382 0.12527335334085013 3.3314298903155968 0.8721902908531812 -0.1552723045676998 -0.23963054360371247 -0.06886276762486192 -0.4786728905260105 10.95702020238572 0.7520439016189249 0.03194004563224236 0.02787725701484837 0.10619396694635996 -0.027578209455035526 2.154962676066281 -0.814775240442378 -0.5743924955758914 -0.1755311659142733 0.2629852815730868 0.027178443285391443 -71.7782530819889 78.58935870346063 -1.533631679771034 31.777557566321875 -47.599557589967596 -96.8484624305207 27.752503182771264 -80.09154952837822 35.69129011168503 0.09516886768719579 0.10967912433121187 -0.14439361414865456 0.14083844732481005 -0.6475801603275466 -0.26712442957096744 0.3498823099277211 0.005848189394264746 -0.07012437826975731 -8.552846548507299 6.4172670955318685 -1.0090225654255143 -0.16888928719411192 0.14793474706818882 0.5049114891094376 -3.1519696580812737 1.498450549295062 -0.29811225078337483 0.22714754580229438 -0.27710365611347343 0.46201149781941064 -10.974810283852666 0.6251733512293496 0.2702348336859678 -0.23519036035424884 0.3176595051360108 0.09505179397595354 -2.059225195130682 -1.2478894351830812 0.3678138510156789 0.1412269143338545 -0.3065024978485008 -0.8508249255208524 -65.1288795098739 -53.73827548388118 -61.85367402925855 -0.7644468314605803 70.27230565302781 -0.210529855634212 2.0025649339840177 2.85761112985535 7.7113715116299595 -0.37573500282304256 -0.225958665999889 -0.6022589736984559 30.701679828639804 -21.322448692452664 26.545475567741196 7.586076813947954 73.7360721660597 -9.910581433800052 11.648807374734 -24.914416148658397 27.66967347870652
1.0252824984490871 54.60995435714722 0.5022097378969193 0.7209330836406043 40.230661154832184 2.152176385771739 -5.449691398650461 11.287270947813237 -4.3611026789229985 7.225546986156123 -9.524663792863285 -0.05582555733521413 -9.614068407777813 20.32674030015362 -14.736353407903243 15.872184838572391 -25.387546767559765 -26.199856042907506 -0.12962495757451514 0.4518326483262405 -0.7488006823410794 0.3876869800969186 -0.27180732465980456 -0.32582299525677766 -0.5498564817256487 0.010704400533290921 0.08655325105988584 57.77618086835517 0.7359844726937852 21.310866399167615 -27.653578137927386 -33.38997056897054 74.08279988908622 -2.781450892071711 18.048561438347132 1.305494610312734 0.27223533206084105 0.23667517944678615 -0.35024014780720636 0.21127162485024598 0.08138479889016959 0.7812609429281535 -0.18950221113982862 -0.5853209583304705 0.026130169330353156 7.701361869401306 5.288442585177507 0.07382239209679031 -0.6738361545490161 -0.04834402558449736 -0.18296166467930672 3.6768897594774406 1.304219712815469 0.29279462834940256 -0.05946890963856719 0.0872677795605191 0.7266766324023504 10.20994435625348 0.9509651037067597 -0.6811425893310785 -0.08472812312803794 -0.2985564265228372 0.0460755623466201 2.5149238906097082 -0.5295603611635442 -0.1298982985434479 0.23882482140548897 -0.1597336320551214 -0.23036643253122155 -62.26496753050921 79.57979077462585 -15.346876697054004 27.917839864462472 -42.5369394148841 -86.91882220761538 37.10436745850146 -79.49929016506807 44.57976361827029 -0.015684248768464904 -0.4761152514861052 0.10486165317138435 0.7184966270976139 0.4254408240537376 0.045040828708002835 0.44484563160958185 -0.3455417780710309 0.029931169603465254 -8.27309736802921 5.607200683552832 -1.2260770126252338 -0.32110154695172705 0.012640438997872191 -0.04923822007681368 -2.9567807808488804 1.0563806425311497 0.2877744393094432 -0.4886098019121741 0.21563291407871069 -0.556932024097253 -10.732347106053675 0.8199093015424062 -0.3464359458829208 -0.0721919912573539 0.4355613768151247 0.33054775193470753 -2.2725973165941182 -0.5977956051584112 0.4691803683227208 -0.3440330533163986 -0.14516617257680647 0.12443967005571188 -60.472787364000396 -46.8279408741475 -61.97125573582032 0.07559215814376409 65.45378477850224 1.6572531945497988 0.41646021919265513 4.111314550125993 6.47007854508123 -0.6928141553230138 0.1104626350744196 0.03755152628308386 34.971391588260275 -23.196333289360464 33.90364860587969 0.8449458935536168 77.5338144389377 -4.671482696507657 11.074081107023277 -24.785320450703278 24.742705192924277
